<?xml version="1.0" encoding="iso-8859-1"?>
<!-- Uploaded to: SVG Repo, www.svgrepo.com, Generator: SVG Repo Mixer Tools -->
<!DOCTYPE svg PUBLIC "-//W3C//DTD SVG 1.1//EN" "http://www.w3.org/Graphics/SVG/1.1/DTD/svg11.dtd">
<svg fill="#000000" height="800px" width="800px" version="1.1" id="Capa_1" xmlns="http://www.w3.org/2000/svg" xmlns:xlink="http://www.w3.org/1999/xlink" 
	 viewBox="0 0 434.39 434.39" xml:space="preserve">
<g>
	<path d="M196.075,115.383c3.113,0.507,6.279,0.764,9.41,0.764c28.564,0,52.634-20.505,57.231-48.757
		c2.487-15.279-1.129-30.627-10.181-43.216c-9.065-12.606-22.491-20.922-37.805-23.414C211.637,0.255,208.489,0,205.373,0
		c-13.626,0-26.907,4.865-37.395,13.7c-10.604,8.931-17.667,21.373-19.89,35.033C142.944,80.339,164.471,110.239,196.075,115.383z
		 M167.829,51.945C170.792,33.733,186.934,20,205.373,20c2.042,0,4.11,0.168,6.145,0.499c10.036,1.633,18.836,7.084,24.779,15.35
		c5.936,8.256,8.309,18.316,6.679,28.328c-3.015,18.525-18.782,31.97-37.491,31.97c-2.059,0-4.144-0.169-6.197-0.504
		C178.569,92.27,164.456,72.667,167.829,51.945z"/>
	<path d="M404.693,85.221c5.159-16.143,4.995-33.022-0.464-47.529c-5.768-15.33-16.684-26.246-30.736-30.737
		c-4.438-1.418-9.065-2.137-13.753-2.137c-24.599,0-48.062,19.656-57.057,47.8c-5.159,16.143-4.995,33.022,0.464,47.529
		c0.155,0.412,0.328,0.808,0.491,1.213c1.477,4.513,2.976,9.932,4.34,15.734c-5.423,19.522-16.795,34.381-32.225,41.957
		c-13.548,6.652-29.592,7.15-45.729,1.564c-0.097-1.132-0.223-2.249-0.391-3.345c-3.769-24.564-25.481-34.043-41.482-39.035
		c-9.67-3.021-17.955-4.49-25.329-4.49c-35.257,0-45.726,33.622-57.846,72.543c-11.263,36.045-12.423,57.288-4.006,73.321
		c1.606,3.06,3.549,5.865,5.841,8.444c1.783,13.095,5.387,74.162-72.86,116.171c-1.899,1.019-3.417,2.625-4.33,4.577L14.97,420.154
		c-2.338,5.004-0.178,10.955,4.826,13.293c1.369,0.64,2.809,0.943,4.227,0.943c3.763,0,7.368-2.135,9.066-5.769l13.265-28.385
		c50.129-27.864,69.243-63.395,76.429-88.516c3.231-11.294,4.402-21.519,4.635-29.783c2.709,1.127,5.599,2.175,8.701,3.138
		c8.399,2.608,15.784,3.875,22.577,3.875c4.914,0,9.423-0.652,13.584-1.9c13.521,8.264,63.506,45.081,63.202,137.302
		c-0.011,3.218,1.527,6.244,4.133,8.131c1.728,1.252,3.787,1.902,5.868,1.902c1.056,0,2.118-0.167,3.146-0.508l33.889-11.238
		c5.242-1.738,8.083-7.397,6.345-12.639c-1.739-5.243-7.404-8.08-12.64-6.344l-21.055,6.982
		c-2.658-53.751-21.658-88.801-37.828-109.211c-9.498-11.989-19.068-20.381-26.448-25.87c11.62-11.768,19.681-30.639,26.972-54.044
		c1.787-5.722,3.445-11.133,4.943-16.289c8.177,4.804,16.827,8.378,25.728,10.525c6.74,1.626,13.479,2.434,20.154,2.434
		c9.668,0,19.2-1.707,28.412-5.061l-1.204,3.767c-1.682,5.261,1.221,10.888,6.48,12.57c1.013,0.323,2.038,0.478,3.048,0.478
		c4.232,0,8.164-2.71,9.522-6.958l16.125-50.45c4.125-12.906,29.04-36.713,44.686-48.237
		C388.691,115.928,399.297,102.105,404.693,85.221z M321.734,58.706c6.276-19.637,22.26-33.889,38.006-33.889
		c2.619,0,5.198,0.399,7.665,1.188c8.105,2.591,14.536,9.243,18.105,18.729c3.88,10.31,3.927,22.526,0.132,34.397
		c-6.275,19.637-22.259,33.889-38.006,33.889c-2.619,0-5.198-0.399-7.665-1.188c-8.105-2.591-14.536-9.243-18.105-18.729
		C317.986,82.793,317.939,70.578,321.734,58.706z M336.956,131.742c-1.689,1.698-3.366,3.436-5.01,5.205
		c-0.313-2.396-0.671-4.786-1.063-7.151c0.985,0.392,1.982,0.762,3.001,1.087C334.898,131.208,335.923,131.491,336.956,131.742z
		 M198.771,215.559c-13.849,44.461-25.602,53.393-40.075,53.393c-4.752,0-10.197-0.974-16.647-2.976
		c-12.347-3.834-19.773-8.811-23.371-15.665c-5.529-10.532-3.867-28.438,5.391-58.069c13.891-44.609,21.048-58.499,38.753-58.499
		c5.32,0,11.654,1.171,19.368,3.581c22.29,6.954,26.474,15.152,27.674,22.976c0.397,2.591,0.459,5.468,0.263,8.6
		c-4.391-5.018-8.408-10.579-11.947-16.619c-2.791-4.765-8.917-6.364-13.683-3.573c-4.765,2.792-6.365,8.919-3.573,13.684
		c6.828,11.655,15.211,21.862,24.653,30.254C203.707,199.573,201.383,207.197,198.771,215.559z M304.193,187.415
		c-15.781,10.056-33.404,13.13-50.969,8.894c-8.789-2.121-17.316-6.025-25.238-11.439c0.255-1.251,0.493-2.487,0.708-3.702
		c7.788,2.206,15.57,3.317,23.186,3.317c11.449,0,22.526-2.494,32.688-7.483c11.405-5.6,21.113-14.001,28.694-24.629
		c0.197,5.711-0.144,10.632-1.24,14.064c0,0.001,0,0.001,0,0.001l-6.478,20.267C305.084,186.91,304.63,187.137,304.193,187.415z"/>
	<path d="M389.364,188.934c-17.094,0-31.001,13.907-31.001,31.001c0,17.093,13.907,30.999,31.001,30.999
		c17.093,0,30.999-13.906,30.999-30.999C420.363,202.841,406.457,188.934,389.364,188.934z M389.364,230.934
		c-6.066,0-11.001-4.934-11.001-10.999c0-6.066,4.935-11.001,11.001-11.001c6.064,0,10.999,4.935,10.999,11.001
		C400.363,226,395.429,230.934,389.364,230.934z"/>
</g>
</svg>